<?xml version="1.0" encoding="utf-8"?>
<!-- Generator: Adobe Illustrator 19.2.0, SVG Export Plug-In . SVG Version: 6.00 Build 0)  -->
<svg version="1.0" id="Forma_1_1_" xmlns="http://www.w3.org/2000/svg" xmlns:xlink="http://www.w3.org/1999/xlink" x="0px" y="0px"
	 viewBox="0 0 527 612" style="enable-background:new 0 0 527 612;" xml:space="preserve">
<g id="Forma_1">
	<g>
		<path d="M499.5,259.4l-45.7-36.2v-183c0-10.5-8.6-19.1-19.1-19.1H80.6c-10.5,0-19.1,8.6-19.1,19.1v183l-45.7,36.2
			c-2.2,1.8-3.5,4.4-3.5,7.2V562c0,15.9,13,28.9,28.9,28.9h432.9c15.9,0,28.9-13,28.9-28.9V266.6C503,263.8,501.7,261.1,499.5,259.4
			z M453.8,246.7l25.1,19.9l-25.1,19.9V246.7z M80,40.2c0-0.3,0.3-0.6,0.6-0.6h354.2c0.3,0,0.6,0.3,0.6,0.6v261l-81.5,64.6H161.5
			L80,301.1V40.2z M330.6,384.1l-35.9,28.4c-21.8,17.3-52.2,17.3-74,0l-35.9-28.4H330.6z M61.5,246.7v39.8l-25.1-19.9L61.5,246.7z
			 M30.8,562.6c0-0.2,0-0.4,0-0.6V285.7l174.7,138.4L30.8,562.6z M48.1,572.4l172.6-136.7c0.3-0.2,0.6-0.4,0.9-0.7
			c11.3,6,23.7,9,36.2,9c12.4,0,24.8-3,36.2-9c0.3,0.2,0.6,0.4,0.9,0.7l172.6,136.7H48.1z M484.6,562c0,0.2,0,0.4,0,0.6L309.8,424.1
			l174.7-138.4V562z M288.7,123.5h118.1c5.1,0,9.2-4.1,9.2-9.2s-4.1-9.2-9.2-9.2H288.7c-5.1,0-9.2,4.1-9.2,9.2
			S283.6,123.5,288.7,123.5z M139.6,285.7h236.1c5.1,0,9.2-4.1,9.2-9.2c0-5.1-4.1-9.2-9.2-9.2H139.6c-5.1,0-9.2,4.1-9.2,9.2
			C130.4,281.6,134.5,285.7,139.6,285.7z M384.9,325.7c0-5.1-4.1-9.2-9.2-9.2H139.6c-5.1,0-9.2,4.1-9.2,9.2c0,5.1,4.1,9.2,9.2,9.2
			h236.1C380.8,334.9,384.9,330.8,384.9,325.7z"/>
	</g>
</g>
<path d="M279.2,78.2c0,5.1,4.1,9.2,9.2,9.2h118.1c5.1,0,9.2-4.1,9.2-9.2c0-5.1-4.1-9.2-9.2-9.2H288.4
	C283.3,69,279.2,73.1,279.2,78.2z"/>
<path d="M136.9,236H373c5.1,0,9.2-4.1,9.2-9.2c0-5.1-4.1-9.2-9.2-9.2H136.9c-5.1,0-9.2,4.1-9.2,9.2C127.6,231.9,131.8,236,136.9,236
	z"/>
<path d="M138.9,186.7H375c5.1,0,9.2-4.1,9.2-9.2c0-5.1-4.1-9.2-9.2-9.2H138.9c-5.1,0-9.2,4.1-9.2,9.2
	C129.6,182.6,133.8,186.7,138.9,186.7z"/>
</svg>
