<?xml version="1.0" encoding="utf-8"?>
<!-- Generator: Adobe Illustrator 19.2.0, SVG Export Plug-In . SVG Version: 6.00 Build 0)  -->
<svg version="1.1" id="Layer_1" xmlns="http://www.w3.org/2000/svg" xmlns:xlink="http://www.w3.org/1999/xlink" x="0px" y="0px"
	 viewBox="0 0 250 250" style="enable-background:new 0 0 250 250;" xml:space="preserve">
<style type="text/css">
	.st0{fill:#010101;}
</style>
<g>
	<path class="st0" d="M50.7,32.3l13.9,13.4c-45.3,43.6-45.3,114.5,0,158.1l-13.9,13.4C-2.2,166.1-2.2,83.2,50.7,32.3z M74.7,194
		l13.9-13.3c-32.1-30.9-32.1-81.1,0-112L74.7,55.3C35,93.5,35,155.8,74.7,194z M99.5,170.2l13.9-13.4c-18.5-17.7-18.5-46.6,0-64.4
		L99.5,79.1C73.4,104.2,73.4,145.1,99.5,170.2z M236,178.3c1.5-17.4,2.3-34.8,2.6-52.2h0.1c0-0.5,0-0.9,0-1.4c0-0.5,0-0.9,0-1.4
		h-0.1c-0.3-17.4-1.2-34.8-2.6-52.2c-3.8-45.5-41-75.7-77.4-67.8c-1.6,0.3-3.3,0.3-4.8,0.9c-8.9,3.5-16.2,10.1-24.4,15
		c-10.4,6.3,12.1,59.7,26,52.8c5.2-2.6,19.4-12.7,25.1-13.5c5.1-0.7,9.1,5.8,9.6,11.8c1.3,15.8,0.1,36.1,0,52.9h0c0,0.4,0,0.9,0,1.4
		s0,1,0,1.4h0c0.1,16.8,1.3,37.1,0,52.9c-0.5,6-4.5,12.5-9.6,11.8c-5.7-0.8-20-10.9-25.1-13.5c-14-6.9-36.5,46.5-26,52.8
		c8.2,4.9,15.5,11.5,24.4,15c1.5,0.6,3.2,0.6,4.8,0.9C195,253.9,232.2,223.7,236,178.3z"/>
</g>
</svg>
