<?xml version="1.0" encoding="utf-8"?>
<!-- Generator: Adobe Illustrator 19.2.0, SVG Export Plug-In . SVG Version: 6.00 Build 0)  -->
<svg version="1.1" id="Layer_1" xmlns="http://www.w3.org/2000/svg" xmlns:xlink="http://www.w3.org/1999/xlink" x="0px" y="0px"
	 viewBox="0 0 604 699" style="enable-background:new 0 0 604 699;" xml:space="preserve">
<path d="M597,155.4L422.4,6c-3.3-3.6-8.1-6-13.8-6H71.1C31.8,0,0,27.2,0,60.8v577.4C0,671.8,31.8,699,71.1,699H533
	c39.2,0,71.1-27.2,71.1-60.8V167.2C604,162.3,601.2,158.1,597,155.4z M426.4,51.4L544,152H426.4V51.4z M568.5,638.2
	c0,16.8-15.9,30.4-35.5,30.4H71.1c-19.6,0-35.5-13.6-35.5-30.4V60.8c0-16.8,15.9-30.4,35.5-30.4h319.8v136.8
	c0,8.4,7.9,15.2,17.8,15.2h159.9V638.2z"/>
<path d="M409.4,168.1h-69.1c-6.8,0-12.4-5.5-12.4-12.4v0c0-6.8,5.5-12.4,12.4-12.4h69.1c6.8,0,12.4,5.5,12.4,12.4v0
	C421.8,162.5,416.2,168.1,409.4,168.1z"/>
<path d="M414.3,115.6h-74c-6.8,0-12.4-5.5-12.4-12.4v0c0-6.8,5.5-12.4,12.4-12.4h74c6.8,0,12.4,5.5,12.4,12.4v0
	C426.7,110,421.2,115.6,414.3,115.6z"/>
<path d="M480.8,521.4H117.1c-11.2,0-20.2,9.1-20.2,20.3c0,11.2,9,20.3,20.2,20.3h363.7c11.2,0,20.2-9.1,20.2-20.3
	C501,530.4,492,521.4,480.8,521.4z"/>
<path d="M480.8,426.5H117.1c-11.2,0-20.2,9.1-20.2,20.3c0,11.2,9,20.3,20.2,20.3h363.7c11.2,0,20.2-9.1,20.2-20.3
	C501,435.6,492,426.5,480.8,426.5z"/>
<path d="M483.7,331.7H119.9c-11.2,0-20.2,9.1-20.2,20.3c0,11.2,9,20.3,20.2,20.3h363.7c11.2,0,20.2-9.1,20.2-20.3
	C503.9,340.8,494.8,331.7,483.7,331.7z"/>
<path d="M483.7,236.8H119.9c-11.2,0-20.2,9.1-20.2,20.3c0,11.2,9,20.3,20.2,20.3h363.7c11.2,0,20.2-9.1,20.2-20.3
	C503.9,245.9,494.8,236.8,483.7,236.8z"/>
</svg>
