<?xml version="1.0" encoding="utf-8"?>
<!-- Generator: Adobe Illustrator 19.2.0, SVG Export Plug-In . SVG Version: 6.00 Build 0)  -->
<svg version="1.1" id="Layer_1" xmlns="http://www.w3.org/2000/svg" xmlns:xlink="http://www.w3.org/1999/xlink" x="0px" y="0px"
	 viewBox="0 0 200 200" style="enable-background:new 0 0 200 200;" xml:space="preserve">
<style type="text/css">
	.st0{fill:none;stroke:#69BD45;stroke-width:8;stroke-miterlimit:10;}
	.st1{fill:#69BD45;}
</style>
<g>
	<path class="st0" d="M193.6,184.6c0,4.9-4.1,9-9,9H15c-4.9,0-9-4.1-9-9V15c0-4.9,4.1-9,9-9h169.6c4.9,0,9,4.1,9,9V184.6z"/>
</g>
<g>
	<path class="st1" d="M103.9,146.3c1.2-1.9,0.6-4.3-1.2-5.5l-55.8-35.5c-1.9-1.2-4.3-0.6-5.5,1.2l-11.9,18.8
		c-1.2,1.9-0.6,4.3,1.2,5.5l37.1,23.6c1.9,1.2,4,1.8,4.8,1.3c0,0,0,0,1-0.1c2.5-0.3,2.5-0.3,2.5-0.3c1.3,1.7,2.7,3.2,3,3.4
		c0.3,0.2,1.3,0.9,1.8,0.8c0,0,0,0,0.4,0.1c1.2,0.3,2,0.6,2.9,1.5c0.1,0.1,0.1,0.1,0.1,0.1c0.1,0.1,0.4,0.1,0.8,0c0,0,0,0,0.4,0
		c3.9-0.4,4.5,2.1,4.5,2.1c0.5,2.1,1.8,2.4,3,0.5L103.9,146.3z"/>
</g>
<g>
	<path class="st1" d="M167,45.9c1.8,1.2,2.4,3.7,1.2,5.5L93.7,166.6c-1.2,1.8-3.7,2.4-5.5,1.2l-18.7-12.1c-1.8-1.2-2.4-3.7-1.2-5.5
		L142.8,35c1.2-1.8,3.7-2.4,5.5-1.2L167,45.9z"/>
</g>
</svg>
