<?xml version="1.0" encoding="utf-8"?>
<!-- Generator: Adobe Illustrator 19.2.0, SVG Export Plug-In . SVG Version: 6.00 Build 0)  -->
<svg version="1.1" id="Layer_1" xmlns="http://www.w3.org/2000/svg" xmlns:xlink="http://www.w3.org/1999/xlink" x="0px" y="0px"
	 viewBox="0 0 200 200" style="enable-background:new 0 0 200 200;" xml:space="preserve">
<style type="text/css">
	.st0{fill:#6ABD45;}
</style>
<path class="st0" d="M200,121.4V78.6h-25.1c-1.4-5.8-3.4-11.3-6.1-16.5l17.2-17l-30.6-30.2L139.2,31c-5.5-3.1-11.4-5.6-17.6-7.4V1.1
	H78.4v23.2c-5.9,1.8-11.6,4.4-16.8,7.5l-17-16.8L14,45.2l18.6,18.4c-2.3,4.8-4.1,9.8-5.4,15.1H0v42.8h29.6c1.6,4.3,3.5,8.4,5.8,12.3
	L14,154.9l30.6,30.2L66.9,163c3.7,1.8,7.5,3.4,11.5,4.6V199h43.2v-30.7c4.2-1.2,8.3-2.7,12.2-4.5l21.6,21.4l30.6-30.2L165.9,135
	c2.6-4.3,4.8-8.8,6.6-13.6H200z M102.1,129.8C85.4,129.8,72,116.5,72,100s13.5-29.8,30.1-29.8s30.1,13.3,30.1,29.8
	S118.7,129.8,102.1,129.8z"/>
</svg>
