<?xml version="1.0" encoding="utf-8"?>
<!-- Generator: Adobe Illustrator 19.2.0, SVG Export Plug-In . SVG Version: 6.00 Build 0)  -->
<svg version="1.1" id="Layer_1" xmlns="http://www.w3.org/2000/svg" xmlns:xlink="http://www.w3.org/1999/xlink" x="0px" y="0px"
	 viewBox="0 0 250 250" style="enable-background:new 0 0 250 250;" xml:space="preserve">
<style type="text/css">
	.st0{fill:#010101;}
</style>
<g>
	<path class="st0" d="M199,216.9l-13.9-13.4c45.3-43.6,45.3-114.5,0-158.1L199,32C251.9,83.1,251.9,166,199,216.9z M175,55.2
		l-13.9,13.3c32.1,30.9,32.1,81.1,0,112l13.9,13.4C214.7,155.7,214.7,93.4,175,55.2z M150.2,79l-13.9,13.4
		c18.5,17.7,18.5,46.6,0,64.4l13.9,13.3C176.3,145,176.3,104.1,150.2,79z M13.7,70.9c-1.5,17.4-2.3,34.8-2.6,52.2H11
		c0,0.5,0,0.9,0,1.4s0,0.9,0,1.4h0.1c0.3,17.4,1.2,34.8,2.6,52.2c3.8,45.5,41,75.7,77.4,67.8c1.6-0.3,3.3-0.3,4.8-0.9
		c8.9-3.5,16.2-10.1,24.4-15c10.4-6.3-12.1-59.7-26-52.8c-5.2,2.6-19.4,12.7-25.1,13.5c-5.1,0.7-9.1-5.8-9.6-11.8
		c-1.3-15.8-0.1-36.1,0-52.9l0,0c0-0.4,0-0.9,0-1.4s0-1,0-1.4l0,0c-0.1-16.8-1.3-37.1,0-52.9c0.5-6,4.5-12.5,9.6-11.8
		c5.7,0.8,20,10.9,25.1,13.5c14,6.9,36.5-46.5,26-52.8c-8.2-4.9-15.5-11.5-24.4-15c-1.5-0.6-3.2-0.6-4.8-0.9
		C54.7-4.7,17.5,25.5,13.7,70.9z"/>
</g>
</svg>
