<?xml version="1.0" encoding="utf-8"?>
<!-- Generator: Adobe Illustrator 19.2.0, SVG Export Plug-In . SVG Version: 6.00 Build 0)  -->
<svg version="1.1" id="Layer_1" xmlns="http://www.w3.org/2000/svg" xmlns:xlink="http://www.w3.org/1999/xlink" x="0px" y="0px"
	 viewBox="0 0 250 210" style="enable-background:new 0 0 250 210;" xml:space="preserve">
<style type="text/css">
	.st0{fill:#010101;}
</style>
<path class="st0" d="M218.2,160.4l-34.8-69.3c-5-9.9-15.1-16.1-26.3-16.1H96.8c-11.1,0-21.3,6.3-26.3,16.1l-34.8,69.3
	c-9.7,19.4,4.5,42.1,26.3,42.1h129.9C213.7,202.5,227.9,179.8,218.2,160.4z M128.3,179.5c-22.6,0-40.9-18.3-40.9-41s18.3-41,40.9-41
	s40.9,18.3,40.9,41S150.9,179.5,128.3,179.5z"/>
<path class="st0" d="M248,86.3h-50.2v0c-0.6-19.4-10.2-37.3-26.1-48.4l-0.6-0.4L125,37l-39.8,0.5l0,0C68.7,47.1,58.5,64.8,58.5,84
	l0,2.3H2l0-10.6C2,36.1,34.1,4,73.7,4h104C216.5,4,248,35.5,248,74.3L248,86.3z"/>
</svg>
