<?xml version="1.0" encoding="utf-8"?>
<!-- Generator: Adobe Illustrator 19.2.0, SVG Export Plug-In . SVG Version: 6.00 Build 0)  -->
<svg version="1.1" id="Layer_1" xmlns="http://www.w3.org/2000/svg" xmlns:xlink="http://www.w3.org/1999/xlink" x="0px" y="0px"
	 viewBox="0 0 200 200" style="enable-background:new 0 0 200 200;" xml:space="preserve">
<style type="text/css">
	.st0{fill:#F1E912;}
</style>
<g>
	<path class="st0" d="M145.8,97.6c0-23.5-20.4-42.7-45.3-42.7c-24.9,0-45.3,19.2-45.3,42.7c0,23,22.4,62,46.7,63.5
		C126.2,159.6,145.8,120.6,145.8,97.6z M90.7,83.6c-4.1,3.6-9,10.2-11,18.4c-1.6,6.5-0.9,11.9-2.5,12.2c-1.6,0.3-3.9-4.4-5-7.8
		c-2.8-8.5-0.3-16.2,0.2-17.8c3-8.6,9.1-13.1,11-14.5c2-1.5,8.6-6.1,18-5.8c7.3,0.2,15.5,3.3,15.4,5.7
		C116.5,77.1,101.7,73.8,90.7,83.6z"/>
	<path class="st0" d="M103.4,161.2c-0.5,0-1-0.1-1.4-0.1c-0.5,0-1,0.1-1.4,0.1H103.4z"/>
</g>
<g>
	<path class="st0" d="M108.6,36.4c0,1.6-1.3,3-3,3h-8.8c-1.7,0-3-1.4-3-3V6c0-1.7,1.3-3,3-3h8.8c1.7,0,3,1.3,3,3V36.4z"/>
</g>
<g>
	<path class="st0" d="M151.3,59.8c-1.2,1.2-3.1,1.2-4.2,0l-6.2-6.2c-1.2-1.2-1.2-3.1,0-4.2l21.5-21.5c1.2-1.2,3.1-1.2,4.2,0l6.2,6.2
		c1.2,1.2,1.2,3.1,0,4.2L151.3,59.8z"/>
</g>
<g>
	<path class="st0" d="M164.6,107.5c-1.6,0-3-1.3-3-3v-8.8c0-1.7,1.4-3,3-3H195c1.6,0,3,1.3,3,3v8.8c0,1.7-1.4,3-3,3H164.6z"/>
</g>
<g>
	<path class="st0" d="M172.6,162.8c1.1,1.2,1.1,3.1-0.2,4.2l-6.4,6c-1.2,1.1-3.1,1.1-4.2-0.2l-20.7-22.3c-1.1-1.2-1.1-3.1,0.2-4.2
		l6.4-6c1.2-1.1,3.1-1.1,4.2,0.2L172.6,162.8z"/>
</g>
<g>
	<path class="st0" d="M38.3,172.3c-1.2,1.2-3.1,1.2-4.2,0l-6.2-6.2c-1.2-1.2-1.2-3.1,0-4.2l21.5-21.5c1.2-1.2,3.1-1.2,4.2,0l6.2,6.2
		c1.2,1.2,1.2,3.1,0,4.2L38.3,172.3z"/>
</g>
<g>
	<path class="st0" d="M6.1,107.6c-1.7,0-3-1.3-3-3v-8.8c0-1.6,1.4-3,3-3h30.4c1.7,0,3,1.4,3,3v8.8c0,1.7-1.3,3-3,3H6.1z"/>
</g>
<g>
	<path class="st0" d="M59.8,49.4c1.2,1.2,1.2,3.1,0,4.2l-6.2,6.2c-1.2,1.2-3.1,1.2-4.2,0L27.9,38.4c-1.2-1.2-1.2-3.1,0-4.2l6.2-6.2
		c1.2-1.2,3.1-1.2,4.2,0L59.8,49.4z"/>
</g>
<g>
	<path class="st0" d="M122.5,159.2c0,1.1-0.9,2-2,2H80.7c-1.1,0-2-0.9-2-2v-10.7c0-1.1,0.9-2,2-2h39.8c1.1,0,2,0.9,2,2V159.2z"/>
</g>
<g>
	<path class="st0" d="M122.5,186.4c0,1.7-1.3,3-3,3H81.7c-1.7,0-3-1.3-3-3v-16.1c0-1.6,1.3-3,3-3h37.8c1.7,0,3,1.4,3,3V186.4z"/>
</g>
<ellipse class="st0" cx="100.5" cy="186.2" rx="11.8" ry="11.8"/>
</svg>
