<?xml version="1.0" encoding="utf-8"?>
<!-- Generator: Adobe Illustrator 19.2.0, SVG Export Plug-In . SVG Version: 6.00 Build 0)  -->
<svg version="1.1" id="Layer_1" xmlns="http://www.w3.org/2000/svg" xmlns:xlink="http://www.w3.org/1999/xlink" x="0px" y="0px"
	 viewBox="0 0 200 200" style="enable-background:new 0 0 200 200;" xml:space="preserve">
<style type="text/css">
	.st0{fill:#010101;}
</style>
<path class="st0" d="M187.5,21.5h-175C5.6,21.5,0,27.2,0,34.1v126c0,7,5.6,12.6,12.5,12.6h175c6.9,0,12.5-5.6,12.5-12.6v-126
	C200,27.2,194.4,21.5,187.5,21.5z M12.5,27.8h175c3.5,0,6.3,2.8,6.3,6.3v7.8L100,112.1L6.3,41.9v-7.8C6.3,30.7,9,27.8,12.5,27.8z
	 M187.5,166.5h-175c-3.5,0-6.3-2.8-6.3-6.3v-8.8l58.1-42.2c1.4-1,1.7-3,0.7-4.4c-1-1.4-3-1.7-4.4-0.7L6.3,143.6V49.8l91.9,68.8
	c0.6,0.4,1.2,0.6,1.9,0.6s1.3-0.2,1.9-0.6l91.9-68.8v93.8l-54.4-39.5c-1.4-1-3.4-0.7-4.4,0.7c-1,1.4-0.7,3.4,0.7,4.4l58.1,42.2v8.8
	C193.8,163.7,191,166.5,187.5,166.5z"/>
</svg>
